<svg width="24" height="24" viewBox="0 0 24 24" fill="none" xmlns="http://www.w3.org/2000/svg">
<rect width="24" height="24" rx="12" fill="#FF9DBB"/>
<path d="M10.7762 17.0107C11.0697 17.2152 12 17.7256 12 17.7256C12 17.7256 12.9303 17.2152 13.2238 17.0107C13.81 16.6023 14.594 16.0189 15.3797 15.3194C16.1636 14.6215 16.9616 13.7974 17.5669 12.9071C18.1693 12.0211 18.6071 11.0303 18.6071 10.0087C18.607 8.01597 17.131 6.35529 15.073 6.35529C14.0947 6.35529 13.147 6.67038 12 7.71655C10.853 6.67038 9.90531 6.35529 8.92695 6.35529C6.86897 6.35529 5.39298 8.01597 5.39294 10.0087C5.39294 11.0303 5.8307 12.0211 6.4331 12.9071C7.03841 13.7974 7.83643 14.6215 8.62025 15.3194C9.40602 16.0189 10.19 16.6023 10.7762 17.0107Z" fill="#5A1F33"/>
</svg>
