<svg width="30" height="30" viewBox="0 0 30 30" fill="none" xmlns="http://www.w3.org/2000/svg">
<rect x="0.5" y="0.5" width="28.2351" height="28.2351" rx="14.1176" fill="#80EF80" fill-opacity="0.5"/>
<rect x="0.5" y="0.5" width="28.2351" height="28.2351" rx="14.1176" stroke="#BFF7BF"/>
<path fill-rule="evenodd" clip-rule="evenodd" d="M14.2309 12.624C13.8255 12.423 13.3494 12.423 12.944 12.624C12.7274 12.7313 12.4957 12.9639 12.3128 13.1477C12.129 13.3306 11.8964 13.5623 11.7891 13.7789C11.5881 14.1843 11.5881 14.6604 11.7891 15.0658C11.8964 15.2824 12.0818 15.467 12.2656 15.6499L12.3128 15.697L19.1867 22.571C19.3696 22.7548 19.5542 22.9402 19.7708 23.0475C20.1762 23.2484 20.6523 23.2484 21.0577 23.0475C21.2743 22.9402 21.506 22.7077 21.6889 22.5238C21.8728 22.3409 22.1053 22.1092 22.2126 21.8926C22.4135 21.4872 22.4135 21.0111 22.2126 20.6057C22.1053 20.3891 21.9199 20.2045 21.7361 20.0216L14.8621 13.1477L14.815 13.1005C14.6321 12.9167 14.4475 12.7313 14.2309 12.624ZM13.1565 13.9906C13.2775 13.8695 13.351 13.7963 13.4094 13.7442C13.4678 13.6832 13.6212 13.5978 13.7676 13.7442C13.8259 13.7963 13.8994 13.8695 14.0206 13.9906L15.3059 15.276L14.4419 16.1401L13.1565 14.8547C13.0354 14.7336 12.9622 14.6601 12.9101 14.6017C12.7651 14.4567 12.8497 14.3025 12.9101 14.2435C12.9622 14.1852 13.0354 14.1116 13.1565 13.9906Z" fill="#385225"/>
<path d="M18.5898 6.11774C18.8391 6.11774 19.0621 6.27297 19.1487 6.50679L19.3829 7.13965C19.7088 8.02061 19.8197 8.28365 20.0086 8.47255C20.1976 8.66145 20.4606 8.77237 21.3416 9.09835L21.9744 9.33253C22.2082 9.41905 22.3634 9.64201 22.3634 9.89133C22.3634 10.1407 22.2082 10.3636 21.9744 10.4501L21.3416 10.6843C20.4606 11.0103 20.1976 11.1212 20.0086 11.3101C19.8197 11.499 19.7088 11.762 19.3829 12.643L19.1487 13.2759C19.0621 13.5097 18.8391 13.6649 18.5898 13.6649C18.3406 13.6649 18.1176 13.5097 18.031 13.2759L17.7968 12.643C17.4709 11.762 17.36 11.499 17.1711 11.3101C16.9821 11.1212 16.7191 11.0103 15.8381 10.6843L15.2053 10.4501C14.9715 10.3636 14.8163 10.1407 14.8163 9.89133C14.8163 9.64201 14.9715 9.41905 15.2053 9.33253L15.8381 9.09835C16.7191 8.77237 16.9821 8.66145 17.1711 8.47255C17.36 8.28365 17.4709 8.02061 17.7968 7.13965L18.031 6.50679C18.1176 6.27297 18.3406 6.11774 18.5898 6.11774Z" fill="#385225"/>
<path d="M9.85098 7.7066C10.1003 7.7066 10.3233 7.86184 10.4098 8.09566L10.5854 8.5703C10.8346 9.24381 10.9072 9.40312 11.0204 9.51635C11.1336 9.62957 11.2929 9.7021 11.9664 9.95132L12.4411 10.127C12.6749 10.2135 12.8301 10.4364 12.8301 10.6858C12.8301 10.9351 12.6749 11.158 12.4411 11.2446L11.9664 11.4202C11.2929 11.6694 11.1336 11.7419 11.0204 11.8552C10.9072 11.9684 10.8346 12.1277 10.5854 12.8012L10.4098 13.2759C10.3233 13.5097 10.1003 13.6649 9.85098 13.6649C9.60166 13.6649 9.3787 13.5097 9.29218 13.2759L9.11654 12.8012C8.86733 12.1277 8.79479 11.9684 8.68156 11.8552C8.56834 11.7419 8.40903 11.6694 7.73552 11.4202L7.26088 11.2446C7.02706 11.158 6.87183 10.9351 6.87183 10.6858C6.87183 10.4364 7.02706 10.2135 7.26088 10.127L7.73552 9.95132C8.40903 9.7021 8.56834 9.62957 8.68156 9.51634C8.79479 9.40312 8.86733 9.24381 9.11654 8.5703L9.29218 8.09566C9.3787 7.86184 9.60166 7.7066 9.85098 7.7066Z" fill="#385225"/>
</svg>
