<svg width="22" height="20" viewBox="0 0 22 20" fill="none" xmlns="http://www.w3.org/2000/svg">
<path d="M18.954 1.12793C18.4363 0.42028 17.6121 0.00214005 16.7353 0.00195005L4.76551 2.57773e-08C3.88812 -0.000119974 3.06274 0.41874 2.5448 1.12695L0.95887 3.2959L0.95008 3.30859C0.57752 3.84162 0.20917 4.51071 0.0643404 5.21093C-0.0848896 5.93297 -0.00375962 6.75292 0.62098 7.42285L0.74109 7.54394C1.35434 8.13722 2.201 8.50002 3.12879 8.50002C4.16686 8.50002 5.11232 8.04072 5.73621 7.30957C6.33224 8.03612 7.23676 8.50002 8.24988 8.50002C9.25558 8.50002 10.1538 8.04262 10.7499 7.32519C11.3461 8.04262 12.2442 8.50002 13.2499 8.50002C14.2623 8.50002 15.1656 8.03622 15.7616 7.31054C16.3855 8.04252 17.3322 8.50192 18.371 8.50192C19.3606 8.50192 20.2586 8.08882 20.8788 7.42382L20.9892 7.29687C21.5124 6.65203 21.5745 5.88895 21.4345 5.21191C21.3077 4.5994 21.0112 4.01106 20.6894 3.5166L20.5497 3.31054L20.5409 3.29785L18.954 1.12793Z" fill="white"/>
<path d="M5.72266 8.50195C6.44257 8.99175 7.31264 9.28115 8.25 9.28125C9.17548 9.28115 10.0349 8.99885 10.749 8.52055C11.4635 8.99935 12.324 9.28115 13.25 9.28125L13.5108 9.27345C14.3476 9.22535 15.1218 8.94595 15.7735 8.50295C16.5211 8.99775 17.4198 9.28315 18.3711 9.28325L18.6211 9.27635C19.1017 9.25125 19.5659 9.15335 20 8.99415V16.2813C20 17.7999 18.7686 19.0311 17.25 19.0313H4.25C2.73133 19.0312 1.49902 17.8 1.49902 16.2813V8.99225C2.00822 9.17895 2.55864 9.28125 3.12891 9.28125L3.3916 9.27445C4.24422 9.22725 5.04521 8.94985 5.72266 8.50195ZM14.3076 13.7852C14.0326 13.4757 13.5587 13.4479 13.249 13.7227C12.7291 14.1844 11.8299 14.5331 10.749 14.5333C9.66798 14.5333 8.76818 14.1844 8.24805 13.7227C7.93841 13.4478 7.46453 13.4758 7.18945 13.7852C6.91445 14.0949 6.94237 14.5688 7.25195 14.8438C8.09941 15.5962 9.37818 16.0333 10.749 16.0333C12.1197 16.0331 13.3979 15.5962 14.2451 14.8438C14.5545 14.5688 14.5823 14.0949 14.3076 13.7852Z" fill="white"/>
</svg>
