<svg width="26" height="22" viewBox="0 0 26 22" fill="none" xmlns="http://www.w3.org/2000/svg">
<path d="M13.3873 0.000123796C14.1602 0.000123796 14.7564 -0.0110798 15.3049 0.180574C15.6193 0.290469 15.915 0.448231 16.1808 0.64882C16.6445 0.998797 16.9662 1.50186 17.3949 2.14492L17.4211 2.18489C17.5347 2.35538 17.6658 2.55143 17.7855 2.72395C17.85 2.81705 17.9796 2.98966 18.0276 3.05401C18.2435 3.28092 18.5265 3.43298 18.835 3.48684C18.942 3.50548 19.0665 3.50855 19.526 3.50855C20.6125 3.50855 21.3376 3.50001 21.9528 3.67414C23.418 4.08891 24.5634 5.23432 24.9782 6.69947C25.1524 7.31472 25.1438 8.03986 25.1438 9.1263V13.8168C25.1438 15.4108 25.1438 16.6963 25.0079 17.7078C24.8663 18.7604 24.5628 19.6467 23.8589 20.3506C23.155 21.0545 22.2689 21.358 21.2163 21.4995C20.2048 21.6355 18.9193 21.6355 17.3252 21.6354H7.81865C6.22462 21.6355 4.93911 21.6355 3.92763 21.4995C2.87502 21.358 1.98881 21.0545 1.2849 20.3506C0.58104 19.6467 0.277503 18.7604 0.135973 17.7078C3.33544e-05 16.6963 4.49309e-05 15.4108 6.83204e-05 13.8168V9.1263C6.83204e-05 8.03988 -0.00848052 7.31472 0.165678 6.69947C0.580478 5.23432 1.72583 4.08892 3.191 3.67414C3.80625 3.49999 4.53136 3.50855 5.61788 3.50855C6.07727 3.50855 6.20191 3.50548 6.30885 3.48684C6.61743 3.433 6.90033 3.28094 7.11627 3.05401C7.16415 2.98971 7.2938 2.81708 7.3584 2.72395C7.48752 2.53775 7.62944 2.32424 7.74898 2.14492C8.17771 1.50182 8.49929 0.998808 8.963 0.64882C9.2289 0.448208 9.52453 0.290481 9.83896 0.180574C10.3874 -0.0111149 10.9836 0.000123796 11.7565 0.000123796H13.3873ZM12.572 6.13986C9.34251 6.13986 6.72455 8.7578 6.72455 11.9872C6.72455 15.2167 9.34251 17.8346 12.572 17.8346C15.8014 17.8346 18.4193 15.2167 18.4193 11.9872C18.4193 8.7578 15.8014 6.13986 12.572 6.13986ZM12.572 8.47881C14.5096 8.47881 16.0804 10.0496 16.0804 11.9872C16.0804 13.9249 14.5096 15.4956 12.572 15.4956C10.6343 15.4956 9.0635 13.9249 9.0635 11.9872C9.0635 10.0496 10.6343 8.47881 12.572 8.47881ZM20.7583 6.7246C20.1124 6.7246 19.5888 7.24819 19.5888 7.89408V7.90549C19.5888 8.55139 20.1124 9.07496 20.7583 9.07496C21.4041 9.07496 21.9278 8.55139 21.9278 7.90549V7.89408C21.9278 7.24819 21.4041 6.7246 20.7583 6.7246Z" fill="#141B34"/>
</svg>
